<?xml version="1.0" encoding="UTF-8"?>
<svg width="96px" height="30px" viewBox="0 0 96 30" version="1.1" xmlns="http://www.w3.org/2000/svg" xmlns:xlink="http://www.w3.org/1999/xlink">
    <!-- Generator: Sketch 51.1 (57501) - http://www.bohemiancoding.com/sketch -->
    <title>Group 6</title>
    <desc>Created with Sketch.</desc>
    <defs>
        <circle id="path-1" cx="15" cy="15" r="15"></circle>
    </defs>
    <g id="UI" stroke="none" stroke-width="1" fill="none" fill-rule="evenodd">
        <g id="iNinja-Topic" transform="translate(-140.000000, -1515.000000)">
            <g id="footer" transform="translate(0.000000, 1090.000000)">
                <g id="Footer" transform="translate(140.000000, 420.000000)">
                    <g id="Component-/-Footer">
                        <g id="Group-6" transform="translate(0.000000, 5.000000)">
                            <g id="Atoms/Logos/Logo---White-BG" transform="translate(40.000000, 7.000000)" fill="#FFFFFF" fill-rule="nonzero">
                                <g id="logo" transform="translate(0.510067, 0.142857)">
                                    <path d="M0.653737808,0.508571429 C1.73204474,-0.467428571 3.83554004,0.295238095 3.64962506,1.86857143 C3.66024877,3.22857143 1.87015302,3.83657143 0.855588367,3.1272381 C-0.0368035794,2.58857143 -0.079298434,1.20190476 0.653737808,0.508571429 Z" id="Shape"></path>
                                    <path d="M21.906477,0.519238095 C22.9954076,-0.483428571 25.1413978,0.311238095 24.9182998,1.90590476 C24.8704931,3.42057143 22.6766962,3.93257143 21.7896161,2.82857143 C21.2159356,2.18857143 21.3221727,1.11657143 21.906477,0.519238095 Z" id="Shape"></path>
                                    <path d="M40.9972904,0.385904762 C42.0915329,-0.408761905 44.0303606,0.385904762 43.8072626,1.86857143 C43.8550694,3.21257143 42.0702855,3.82057143 41.0663445,3.1592381 C40.0942747,2.59390476 40.0677154,1.00990476 40.9972904,0.385904762 Z" id="Shape"></path>
                                    <path d="M6.72519016,0.695238095 C8.01065951,0.695238095 9.29612886,0.695238095 10.5815982,0.695238095 C12.4726192,4.0552381 14.5176841,7.34590476 15.967821,10.9352381 C15.6597333,7.53257143 15.7181638,4.10857143 15.7234756,0.695238095 C16.7274166,0.695238095 17.7366694,0.695238095 18.7406103,0.695238095 C18.7459221,5.5272381 18.7459221,10.3645714 18.7406103,15.1965714 C17.5879374,15.1965714 16.4299526,15.1965714 15.2772796,15.1965714 C13.33314,11.6499048 11.2615159,8.1672381 9.63077584,4.46057143 C9.78481969,8.0392381 9.78481969,11.6179048 9.77950783,15.1965714 C8.75963132,15.1965714 7.74506667,15.1965714 6.72519016,15.1965714 C6.72519016,10.3645714 6.72519016,5.53257143 6.72519016,0.695238095 Z" id="Shape"></path>
                                    <path d="M0.255348546,4.65790476 C1.34959105,4.65790476 2.44383356,4.6632381 3.53807606,4.6632381 C3.53807606,8.17257143 3.53807606,11.6819048 3.53807606,15.1965714 C2.44383356,15.1965714 1.34959105,15.1965714 0.250036689,15.1965714 C0.250036689,11.6872381 0.250036689,8.17257143 0.255348546,4.65790476 Z" id="Shape"></path>
                                    <path d="M21.534647,4.65790476 C22.6288895,4.65790476 23.723132,4.6632381 24.8173745,4.6632381 C24.8173745,8.17257143 24.8173745,11.6819048 24.8173745,15.1965714 C23.723132,15.1965714 22.6288895,15.1965714 21.534647,15.1965714 C21.5293351,11.6819048 21.5293351,8.17257143 21.534647,4.65790476 Z" id="Shape"></path>
                                    <path d="M27.3298828,4.65790476 C28.2913289,4.65790476 29.2527749,4.6632381 30.214221,4.6632381 C30.2195329,4.99390476 30.2354685,5.6552381 30.2460922,5.98590476 C31.9671338,4.04990476 35.6535624,3.72990476 36.8806013,6.34857143 C37.8739186,9.1752381 37.2152483,12.2579048 37.4011633,15.1965714 C36.3016089,15.1965714 35.2073664,15.1965714 34.1078121,15.1912381 C34.0546935,12.9032381 34.2777915,10.5992381 33.9750157,8.3272381 C33.7306702,6.67390476 31.2128501,6.7912381 30.8516438,8.31657143 C30.5169969,10.5885714 30.7613423,12.9032381 30.6976,15.1965714 C29.6033575,15.1965714 28.5038031,15.1965714 27.4095606,15.1965714 C27.3989369,11.6819048 27.4467436,8.17257143 27.3298828,4.65790476 Z" id="Shape"></path>
                                    <path d="M40.4236098,4.6632381 C41.5284761,4.6632381 42.6333423,4.65790476 43.7382085,4.65790476 C43.7275848,7.6392381 43.7647678,10.6205714 43.7435204,13.6019048 C43.7010255,15.2392381 43.5841647,17.1005714 42.3411902,18.3165714 C41.2575714,19.4579048 39.6055839,19.5165714 38.1660707,19.7832381 C38.0598336,18.9405714 37.9535964,18.1032381 37.8473593,17.2659048 C38.8247409,16.8872381 40.2430067,16.6045714 40.2536304,15.2765714 C40.6148367,11.7512381 40.3333083,8.1992381 40.4236098,4.6632381 Z" id="Shape"></path>
                                    <path d="M46.3091472,5.2232381 C48.9332045,4.40190476 52.7630532,3.56457143 54.4894067,6.38057143 C55.5145951,8.97790476 54.8718604,11.8685714 55.1958837,14.5939048 L55.1958837,15.1859048 C54.2450613,15.1912381 53.2995508,15.2019048 52.3540403,15.2125714 C52.2584268,15.0259048 52.0725119,14.6632381 51.9768984,14.4819048 C50.5639445,15.1379048 48.9066452,15.8899048 47.3768304,15.1005714 C45.353013,14.2259048 44.981183,11.2285714 46.5216215,9.7352381 C48.0142532,8.2792381 50.2611687,8.3752381 52.1521897,7.86857143 C50.7551714,6.17790476 48.6304286,6.80190476 46.8562685,7.3512381 C46.7181602,6.8232381 46.4472555,5.75657143 46.3091472,5.2232381 Z M48.8375911,11.4899048 C48.5029441,12.6525714 49.7937253,13.4952381 50.7870425,12.9619048 C51.9768984,12.5565714 51.7803597,11.1219048 51.9237799,10.1352381 C50.8560966,10.4072381 49.358153,10.2792381 48.8375911,11.4899048 Z" id="Shape"></path>
                                </g>
                            </g>
                            <g id="logo">
                                <mask id="mask-2" fill="white">
                                    <use xlink:href="#path-1"></use>
                                </mask>
                                <use id="Mask" fill="#FF0D35" xlink:href="#path-1"></use>
                                <rect id="Rectangle-4" fill="#FFEFDA" mask="url(#mask-2)" x="8" y="10.5791789" width="13.5" height="6.53225806" rx="3.26612903"></rect>
                                <path d="M15.2640278,6.14478726 C18.8053313,6.16491484 22.0068935,9.16392488 22.2786866,12.7184562 C22.610434,15.5041139 21.135557,18.2817205 18.8013344,19.7470086 C21.7910579,20.660801 24.3411162,22.8949628 25.5681818,25.8013859 C23.3298861,28.1039816 20.2722144,29.4324021 17.1545883,29.9959745 L18.1338426,30 L12.9617808,30 C10.3237895,29.4686318 7.69778903,28.5025077 5.6393564,26.7071272 C6.17095163,25.1653543 7.0382912,23.7725255 8.1054786,22.5447428 C6.73052554,21.276705 5.23166683,20.1415093 3.928659,18.7969867 C3.33311247,18.1770571 4.36832422,17.210933 4.95987379,17.7906075 C6.45473554,18.9620328 7.8017099,20.3065555 9.25660209,21.518236 C10.0999599,20.9627147 10.9872843,20.4756272 11.8985904,20.0529479 C9.20464166,18.7285529 7.46596555,15.6973387 7.85367034,12.67015 C8.12946034,8.97875111 11.6068125,5.95558797 15.2640278,6.14478726 Z M10.9153391,11.1565557 C9.44445905,11.6436433 9.71225514,13.4551258 9.76421557,14.6708319 C9.77620644,15.6168284 10.6835156,16.3655745 11.6028156,16.2810386 C14.0249713,16.2850642 16.4511239,16.3333704 18.8692826,16.2568855 C19.8125644,16.2005283 20.4560744,15.2384298 20.3721383,14.3326885 C20.4360896,13.1934672 20.5400105,11.5269033 19.1530665,11.1444792 C16.4151513,11.0398157 13.6532543,11.0196881 10.9153391,11.1565557 Z" id="Shape" fill="#131313" fill-rule="nonzero" mask="url(#mask-2)"></path>
                                <ellipse id="Oval-3" fill="#131313" mask="url(#mask-2)" cx="17.2159091" cy="13.4772727" rx="1" ry="1.02272727"></ellipse>
                                <ellipse id="Oval-3" fill="#131313" mask="url(#mask-2)" cx="13.125" cy="13.4772727" rx="1" ry="1.02272727"></ellipse>
                            </g>
                        </g>
                    </g>
                </g>
            </g>
        </g>
    </g>
</svg>